# xmcd
# 
# Track frame offsets:
#     182
#     21442
#     38715
#     56312
#     76177
#     94142
#     110005
#     129247
#     147455
#     161010
#     181277
# 
# Disc length: 2674
# 
# Revision: 2
# Processed by: cddbd v1.5.2PL0 Copyright (c) Steve Scherf et al.
# Submitted via: fre:ac v1.0.17
# 
DISCID=8c0a700b
DTITLE=Sonny Landreth - Outward Bound
DYEAR=1992
DGENRE=Blues
TTITLE0=Soldier Of Fortune
TTITLE1=Back To Bayou Têche
TTITLE2=When You're Away
TTITLE3=Sacred Ground
TTITLE4=New Landlord
TTITLE5=Speak Of The Devil
TTITLE6=Yokamoma
TTITLE7=Planet Cannonball
TTITLE8=Common Law-Love
TTITLE9=Bad Weather
TTITLE10=Outward Bound
EXTD=BMG 72445-11032-2\n
EXTT0=
EXTT1=
EXTT2=
EXTT3=
EXTT4=
EXTT5=
EXTT6=
EXTT7=
EXTT8=
EXTT9=
EXTT10=
PLAYORDER=
